<svg id="ICONS" xmlns="http://www.w3.org/2000/svg" viewBox="0 0 400 140"><defs><style>.cls-1,.cls-11,.cls-2{fill:none;}.cls-1,.cls-2{stroke:#414042;stroke-miterlimit:10;}.cls-2{stroke-dasharray:3.02 3.02;}.cls-3{fill:#80bceb;}.cls-4{fill:#aad2f2;}.cls-5{fill:#009580;}.cls-6{fill:#fff;}.cls-7{fill:#939598;}.cls-8{fill:#0050c5;}.cls-9{fill:#acacac;}.cls-10{fill:#464646;}.cls-11{stroke:#6d6e71;stroke-linecap:round;stroke-linejoin:round;stroke-width:4px;}.cls-12{fill:#0078d7;}.cls-13{fill:#558ad8;}.cls-14{fill:#4d4e4e;}.cls-15{fill:#55a5e4;}.cls-16{fill:#808285;}.cls-17{fill:#2b6942;}</style></defs><title>bot-framework-intelligence-smarter</title><line class="cls-1" x1="157.14" y1="81" x2="157.14" y2="82.5"/><path class="cls-2" d="M157.14,85.52V92a30.09,30.09,0,0,0,30,30h3a30.09,30.09,0,0,0,30-30L220,89l1-43c0-16.5,14-35.5,30.5-35.5h3C271,10.5,283,29.5,283,46V93"/><path class="cls-1" d="M283,94.5V95q0,.5,0,1"/><path class="cls-3" d="M327,81.5A42.49,42.49,0,1,1,284.5,39,42.29,42.29,0,0,1,327,81.5Z"/><path class="cls-4" d="M327,81.5A42.29,42.29,0,0,1,315,111L255,51A42.49,42.49,0,0,1,327,81.5Z"/><path class="cls-5" d="M320,80.66a14.81,14.81,0,0,0-7.63-7.44c-1.64-5.51-6.23-11-13.07-11l-.66,0a14.35,14.35,0,0,0-8.45-3A13.21,13.21,0,0,0,285,60.28a9.33,9.33,0,0,0-4.36-1,13.62,13.62,0,0,0-8.87,3.51,8.75,8.75,0,0,0-2-.23c-5.22,0-10.4,4.32-11.8,9.55a15.21,15.21,0,0,0-9.34,8.46,13.07,13.07,0,0,0,.9,11.49,11.1,11.1,0,0,0,9.63,5.64,10.59,10.59,0,0,0,4.33-.91,13,13,0,0,0,8.47,3.51,9.52,9.52,0,0,0,2.94-.45c2.38,2,6,2.7,9,2.7a13.76,13.76,0,0,0,8.55-2.54,10.06,10.06,0,0,0,4.24.92h0a12.82,12.82,0,0,0,9.75-4.78,9.68,9.68,0,0,0,3.68.73h0a10.82,10.82,0,0,0,9.7-6.82A11.68,11.68,0,0,0,320,80.66Z"/><path class="cls-6" d="M271.18,100.25V87.36a2.9,2.9,0,0,0-2.9-2.9h-4.83v2h4.83a.85.85,0,0,1,.85.85V99.91A11.19,11.19,0,0,0,271.18,100.25Z"/><path class="cls-6" d="M280.1,78.2h-6.49a.85.85,0,0,1-.85-.85V61.92a12.06,12.06,0,0,0-1,.84,8.41,8.41,0,0,0-1-.17V77.35a2.9,2.9,0,0,0,2.9,2.9h6.49a.85.85,0,0,1,.85.85v4.81h2V81.1A2.9,2.9,0,0,0,280.1,78.2Z"/><path class="cls-6" d="M307.39,86.4V84.56h-2.05V86.4a.85.85,0,0,1-.85.85h-8.22V72.55a2.9,2.9,0,0,0-2.9-2.9h-5.59v2h5.59a.85.85,0,0,1,.85.85v28.07a10.23,10.23,0,0,0,2,.28V89.3h8.22A2.91,2.91,0,0,0,307.39,86.4Z"/><path class="cls-6" d="M282,94.39a4.57,4.57,0,1,1,4.57-4.57A4.57,4.57,0,0,1,282,94.39Zm0-7.24a2.67,2.67,0,1,0,2.67,2.67A2.68,2.68,0,0,0,282,87.14Z"/><path class="cls-6" d="M260.14,90a4.57,4.57,0,1,1,4.57-4.57A4.57,4.57,0,0,1,260.14,90Zm0-7.24a2.67,2.67,0,1,0,2.67,2.67A2.67,2.67,0,0,0,260.14,82.79Z"/><path class="cls-6" d="M306.39,85.68A4.57,4.57,0,1,1,311,81.11,4.57,4.57,0,0,1,306.39,85.68Zm0-7.24a2.67,2.67,0,1,0,2.67,2.67A2.67,2.67,0,0,0,306.39,78.44Z"/><path class="cls-6" d="M284.47,75.22A4.57,4.57,0,1,1,289,70.65,4.57,4.57,0,0,1,284.47,75.22Zm0-7.24a2.67,2.67,0,1,0,2.67,2.67A2.67,2.67,0,0,0,284.47,68Z"/><polygon class="cls-7" points="150.5 100.7 148.22 104.65 148.02 105 134.75 127.98 103.27 127.98 90 105 89.8 104.65 87.52 100.7 90.24 96 90.63 95.32 103.27 73.44 134.75 73.44 147.39 95.32 147.78 96 150.5 100.7"/><path class="cls-8" d="M106.57,124.56A12.44,12.44,0,0,0,94.13,137H119A12.44,12.44,0,0,0,106.57,124.56Z"/><path class="cls-8" d="M134.56,124.56A12.44,12.44,0,0,0,122.12,137H147A12.44,12.44,0,0,0,134.56,124.56Z"/><rect class="cls-9" x="95.14" y="44" width="46.66" height="29.55" rx="4" ry="4"/><rect class="cls-6" x="101.9" y="51.78" width="15.55" height="15.55" rx="4" ry="4"/><circle class="cls-10" cx="112.34" cy="59.95" r="4.26" transform="translate(42.94 166.71) rotate(-85.06)"/><rect class="cls-6" x="120.56" y="51.78" width="15.55" height="15.55" rx="4" ry="4"/><circle class="cls-10" cx="130.34" cy="59.95" r="4.26" transform="translate(59.39 184.65) rotate(-85.06)"/><polyline class="cls-11" points="137.34 91 156 91 156 78.56"/><circle class="cls-12" cx="156" cy="79" r="5"/><polyline class="cls-11" points="104.66 92 86 92 86 79.56"/><circle class="cls-12" cx="86" cy="79" r="5"/><polygon class="cls-13" points="150.5 100.7 148.22 104.65 148.02 105 90 105 89.8 104.65 87.52 100.7 90.24 96 147.78 96 150.5 100.7"/><rect class="cls-14" x="84" y="20.75" width="5" height="31.25" rx="2" ry="2"/><path class="cls-8" d="M93,46.17A6.5,6.5,0,0,0,93.27,48h49.46a6.5,6.5,0,0,0,.27-1.83V26l15-5L118,7,78,21.17,93,26Z"/><polygon class="cls-15" points="118 43 143 34.09 143 26.17 118 33.12 93 26 93 34.09 118 43"/><path class="cls-14" d="M83,55V48c0-2.75,1.26-5,2.8-5h1.4c1.54,0,2.8,2.25,2.8,5v7Z"/><path class="cls-12" d="M142.73,48a6.52,6.52,0,0,0,.27-1.86V29l-24,9L93,29V46.14A6.52,6.52,0,0,0,93.27,48Z"/><path class="cls-16" d="M188.29,112.24a1.57,1.57,0,0,0,1.47,1.08l3.3-.1a1.69,1.69,0,0,0,1.35-1.71l.19-4a2.34,2.34,0,0,1,1.63-2.46c.53-.48,1.3-.7,1.83-1.18a2.83,2.83,0,0,1,2.77.38l3.69,2.45a1.92,1.92,0,0,0,1.78-.17l2.4-2.68a1.76,1.76,0,0,0-.41-2l-2.89-3.17A2.06,2.06,0,0,1,205,96l-.24-.26A2.74,2.74,0,0,0,205.6,94c0-1,.6-2,2.38-2.17l3.83-.59a2,2,0,0,0,1.34-1.71L212.81,86a1.24,1.24,0,0,0-1.47-1.08l-4-.19a2.41,2.41,0,0,1-2.46-1.63c-.48-.53-.7-1.3-1.18-1.83a4.06,4.06,0,0,1,.14-3L206.22,75a1.83,1.83,0,0,0-.15-2.29l-2.7-1.9a1.54,1.54,0,0,0-2-.09l-2.93,3.16a2.58,2.58,0,0,1-2.82.63,7.83,7.83,0,0,0-2-.6l-.24-.26a2.66,2.66,0,0,1-1.93-2.11l-.56-4.33a1.57,1.57,0,0,0-1.47-1.08l-3.57.35A1.24,1.24,0,0,0,184.75,68l-.45,4.29c-.07,1.52-.6,2-1.37,2.22-.53.48-1.3.7-1.83,1.19a2.66,2.66,0,0,1-3-.14l-3.42-2.69a2,2,0,0,0-2,.41L170.19,76a2.24,2.24,0,0,0,.42,2l2.89,3.17c1,1.06,1.18,1.83.39,2.55,0,.51-.31,1.25-.36,2.27-.29.75-.58,1.49-2.36,1.67l-4.09.83A1.58,1.58,0,0,0,166,90l.34,3.56a1.61,1.61,0,0,0,1.21,1.32l4.31-.06c1.52.07,2,.6,2.22,1.37a22.63,22.63,0,0,1,1.16,2.33,2.27,2.27,0,0,1,.12,2.79l-2.69,3.43a2,2,0,0,0,.41,2l2.44,2.14a1.54,1.54,0,0,0,2,.09l2.93-3.16a2.58,2.58,0,0,1,2.82-.63l2.24.86c1,0,1.49.58,1.93,2.11l.83,4.09m9.93-23.12a8.9,8.9,0,0,1-8,9.27,8.26,8.26,0,0,1-9.26-8,8.5,8.5,0,0,1,7.76-9,8.61,8.61,0,0,1,9.52,7.78"/><path class="cls-17" d="M249,43.58l1.18-2.29c.5-.84.89-1.07,1.5-.93l1.48-.13a1.59,1.59,0,0,1,1.56.83l1.21,2.37a1,1,0,0,0,1.22.29l1.81-.86a1.21,1.21,0,0,0,.59-1.14l-1-2.49a1.4,1.4,0,0,1,.53-1.6,14,14,0,0,1,1.08-1.19c.26-.44.64-.66,1.55-.44l2.55.76a1,1,0,0,0,.94-.58l.81-2.06a1,1,0,0,0-.39-1.06l-2.29-1.19c-1-.39-1.12-.9-1.12-1.39a10.52,10.52,0,0,0,.17-1.41c-.34-.56-.09-1,.66-1.45l2.26-1.39a1.38,1.38,0,0,0,.59-1.15l-1-2a1.22,1.22,0,0,0-1.15-.59l-2.49,1a1.64,1.64,0,0,1-1.83-.43c-.24-.36-.66-.62-.89-1-.44-.26-.66-.64-.44-1.55l.46-2.62v0a.77.77,0,0,0-.36-1L256.1,16a1,1,0,0,0-1.06.39l-1,2.47c-.28.57-1.72,1.06-1.72,1.06A4.84,4.84,0,0,0,251,20a1.6,1.6,0,0,1-1.57-.85l-1.19-2.36a1,1,0,0,0-1.22-.29l-1.93.67a1.13,1.13,0,0,0-.48,1.33l.9,2.3a2.5,2.5,0,0,1-.38,1.84c-.36.23-.62.65-1,.88a1.49,1.49,0,0,1-1.74.55l-2.44-.58-.05,0a.77.77,0,0,0-1,.41l-.81,2.06a1.24,1.24,0,0,0,.51,1.24l2.17,1c1,.4,1,3,1,3a1.27,1.27,0,0,1-.67,1.45L238.89,34a1,1,0,0,0-.59,1.15l1,2a1.18,1.18,0,0,0,1,.41l2.61-.83a1.75,1.75,0,0,1,1.71.25c.24.36.66.62.89,1a1.45,1.45,0,0,1,.5,1.73l-.57,2.43a1,1,0,0,0,.51,1.25l1.94.62a1,1,0,0,0,1.06-.39m-2-15.41,0-.12a5.32,5.32,0,0,1,7-2.88A5.25,5.25,0,0,1,257,31.83q-.07.24-.17.47A5.11,5.11,0,0,1,250.16,35a5.5,5.5,0,0,1-3.2-6.86"/></svg>