<svg id="ICONS" xmlns="http://www.w3.org/2000/svg" viewBox="0 0 400 140"><defs><style>.cls-1{fill:#58595b;}.cls-2{fill:#0050c5;}.cls-3{fill:#fff;}.cls-4{fill:#d4e8f8;}.cls-5{fill:#2c94d9;}.cls-6{fill:#414042;}.cls-7{fill:#a7a9ac;}.cls-8{fill:#55a5e4;}.cls-9{fill:gray;}.cls-10{fill:#7750a3;}.cls-11{fill:#9273b6;}.cls-12{fill:#808285;}</style></defs><title>bot-framework-overview-concepts</title><path class="cls-1" d="M126.86,86.17l0,.13A4.92,4.92,0,0,1,122,90a4.93,4.93,0,0,1-3.53-1.45L96.72,66.79l-2.11-2.11a5,5,0,0,1,2.25-8.35l.33-.08a5,5,0,0,1,4.49,1.36l23.87,23.87A5,5,0,0,1,126.86,86.17Z"/><path class="cls-2" d="M78.64,15.16a26.49,26.49,0,1,0,26.51,26.49A26.53,26.53,0,0,0,78.64,15.16Z"/><path class="cls-3" d="M101.15,41.65c0,.51,0,1-.06,1.51A22.39,22.39,0,0,1,78.66,64h0A22.45,22.45,0,0,1,56.21,43.08c0-.49-.06-1-.06-1.45A22.52,22.52,0,0,1,78.64,19.15,22.54,22.54,0,0,1,101.15,41.65Z"/><polygon class="cls-4" points="109.54 65.47 102.02 72.09 96.72 66.79 104.24 60.17 109.54 65.47"/><path class="cls-4" d="M101.15,41.57a10.35,10.35,0,0,1-.06,1.43H56.21a10.09,10.09,0,0,1-.06-1.41A22.57,22.57,0,0,1,78.64,19.1,22.52,22.52,0,0,1,101.15,41.57Z"/><path class="cls-5" d="M212,82h25a8.38,8.38,0,0,0,8-8V64h5V74a12.9,12.9,0,0,1-13,13H212Z"/><path class="cls-6" d="M250,56V70h-5V56a12.52,12.52,0,0,1-6.87-4.48,11.45,11.45,0,0,1-2.61-7.34,11.3,11.3,0,0,1,3.23-8.12l3.67,3.67a6.52,6.52,0,1,0,9.6-.06L255.7,36a11.31,11.31,0,0,1,3.3,8.18,11.43,11.43,0,0,1-2.61,7.34C254.65,53.69,252.61,55.46,250,56Z"/><path class="cls-6" d="M134,87h14l.16-6L134,81a11.59,11.59,0,0,0-4.48-6.47,11.45,11.45,0,0,0-7.34-2.61,11.3,11.3,0,0,0-8.12,3.23l3.67,3.67a6.52,6.52,0,1,1-.06,9.6L114,92.1a11.31,11.31,0,0,0,8.18,3.3,11.43,11.43,0,0,0,7.34-2.61C131.69,91,133.46,89.61,134,87Z"/><rect class="cls-5" x="143" y="81" width="22" height="6"/><path class="cls-7" d="M229.67,118A33.93,33.93,0,0,0,232,105.83V59.52C232,41.08,216.7,26,198,26h0c-18.7,0-34,15.08-34,33.52v46.3A33.93,33.93,0,0,0,166.33,118Z"/><path class="cls-2" d="M220,50.44h0a20.34,20.34,0,0,0-5.26-7.58,22.85,22.85,0,0,0-7.67-5.18,23.66,23.66,0,0,0-30.95,30.89,23.73,23.73,0,0,0,45.56-9.07A27.62,27.62,0,0,0,220,50.44Zm-4.34,9.07a17.15,17.15,0,0,1-2.39,8.84,18.19,18.19,0,0,1-6.47,6.48,17.54,17.54,0,0,1-17.69,0,18.17,18.17,0,0,1-6.48-6.48,17.54,17.54,0,0,1,0-17.69,18.19,18.19,0,0,1,6.47-6.47,17.54,17.54,0,0,1,17.69,0,18.21,18.21,0,0,1,6.48,6.48A17.16,17.16,0,0,1,215.66,59.51Z"/><path class="cls-2" d="M202.71,51.26a9.45,9.45,0,0,0-9.54,0,9.72,9.72,0,0,0-3.48,3.48,9.45,9.45,0,0,0,0,9.54,9.7,9.7,0,0,0,3.48,3.48,9.45,9.45,0,0,0,9.54,0,9.72,9.72,0,0,0,3.48-3.48,9.45,9.45,0,0,0,0-9.54A9.74,9.74,0,0,0,202.71,51.26Z"/><path class="cls-2" d="M181,115.12A13,13,0,0,0,168.14,128H193.9A13,13,0,0,0,181,115.12Z"/><path class="cls-2" d="M216.47,115.12A13,13,0,0,0,203.58,128h25.77A13,13,0,0,0,216.47,115.12Z"/><rect class="cls-8" x="164" y="91" width="68" height="10"/><path class="cls-9" d="M74.28,76.51c-.58-.16-1.15.05-1.11.82l.31,2.48a2.48,2.48,0,0,1-.31,1.55,10.61,10.61,0,0,1-1.72.27l-2.3.1c-.77,0-1.13.44-.92,1L69.49,85c.22.57.44,1.13.25,1.33.2.18-.73.8-1.3,1l-2.27.87c-.57.22-.73.8-.33,1.17l2,1.83c.4.37,1,.92.82,1.12a5.91,5.91,0,0,1-.9,1.39l-1.85,1.62c-.55.6-.33,1.17.25,1.33l2.54.85a2.94,2.94,0,0,1,1.18.71s-.15,1-.31,1.55l-1,2.35c-.16.58.05,1.15.82,1.11l2.3-.1,1.53-.07a4.08,4.08,0,0,1,.47,1.9l-.28,2.32c0,.77.44,1.13,1.19.72l2.26-.87a11.33,11.33,0,0,1,1.32-.64,4,4,0,0,1,1,1.3l.89,2.65c.22.57.8.73,1.35.13l1.65-1.8.92-1a2.06,2.06,0,0,1,1.59,1.08l1.8,1.65c.4.37,1,.53,1.33-.25l.66-2.34c.35-.78.51-1.37.71-1.18a1.94,1.94,0,0,1,1.74.11L94,108.09c.58.17,1.15-.05,1.11-.82L95,104.59a1.45,1.45,0,0,1,.13-1.35,3.77,3.77,0,0,1,1.72-.27l2.5.08c.57-.22.93-.62.71-1.19l-1.26-2.25a5.08,5.08,0,0,1-.25-1.33c0-.38.73-.8,1.3-1l2.26-.87c.57-.22.73-.8.33-1.17l-1.8-1.65a9.57,9.57,0,0,1-1-1.3,9.61,9.61,0,0,1,.9-1.39l1.85-1.62c.55-.6.33-1.17-.25-1.33l-2.35-1a4.56,4.56,0,0,1-1.37-.52s.15-1,.31-1.55l1-2.35c.35-.78-.05-1.15-.82-1.12l-2.3.1a4.7,4.7,0,0,1-1.35-.13,1.85,1.85,0,0,1-.45-1.52l.08-2.5c0-.77-.44-1.13-1.18-.72l-2.27.87a11.19,11.19,0,0,1-1.31.64,5.62,5.62,0,0,1-.84-1.5L88.2,74.16c-.22-.57-.8-.73-1.35-.13l-1.65,1.8-.92,1a2.06,2.06,0,0,1-1.59-1.08L80.9,74.1c-.22-.57-1-.53-1.33.25l-.66,2.34c-.17.58-.51,1.37-.72,1.18a1.33,1.33,0,0,1-1.55-.31Zm7.17,13.9a3.27,3.27,0,0,1,4.39-.77A3,3,0,0,1,87,94a3.3,3.3,0,0,1-5.55-3.59"/><path class="cls-10" d="M340.26,76,335,75a20.86,20.86,0,0,0-.4-3.59l4.44-2.62a1.37,1.37,0,0,0,.84-1.84l-1.17-3.25a1.18,1.18,0,0,0-1.66-.64l-5.3.89-1.56-2.89,3.19-4a1.41,1.41,0,0,0,.08-1.87L331,52.44a1.69,1.69,0,0,0-1.88-.08l-4.27,2.81c-.91-.6-2-1.4-2.91-2l1.37-5.2a1.29,1.29,0,0,0-.68-1.54L319.51,45a1.19,1.19,0,0,0-1.72.48l-3,4.57a10.81,10.81,0,0,0-3.34-.91l-.51-5.28a1.29,1.29,0,0,0-1.25-1.38l-3.57,0c-.56-.21-1.15.33-1.36.88l-1.19,5.4a11.12,11.12,0,0,0-3.41.59l-2.6-4.81a1.9,1.9,0,0,0-1.66-.64l-3.45,1.35a1.27,1.27,0,0,0-.82,1.46l1.08,5.13c-1,.52-1.94,1.41-2.91,1.94l-4.17-3.39a1.22,1.22,0,0,0-1.69.11L282.27,52l-.91.84,0,0a1.21,1.21,0,0,0-.24,1.65l3,4.46a15.48,15.48,0,0,0-2.21,3.1l-5.18-1.74a1.67,1.67,0,0,0-1.74.86l-1.46,3.13a1.63,1.63,0,0,0,.67,1.91l4.38,2.83c-.43,1.11-.48,2.24-.91,3.35l-5.28.51a1.65,1.65,0,0,0-1.2,1.45L271,77.74a1.64,1.64,0,0,0,1,1.56l5.42.81a21.72,21.72,0,0,0,.57,3.78l-4.82,2.6a1.19,1.19,0,0,0-.64,1.67l1.17,3.25a1.76,1.76,0,0,0,1.65,1l5.32-1.26L282.28,94l-3.39,4.17a1.77,1.77,0,0,0,.11,1.7l2.51,2.74a1.42,1.42,0,0,0,1.67.27l4.47-3c.91.61,2,1.41,2.91,2l-1.36,5.21a1.26,1.26,0,0,0,.68,1.53l3.3,1.66a1.62,1.62,0,0,0,1.72-.49l2.83-4.39c1.13.05,2.24.48,3.36.53l.31,5.47a1.64,1.64,0,0,0,1.45,1.19l3.56.35a2.26,2.26,0,0,0,1.37-1.25l1-5.22c1.32-.13,2.46-.46,3.78-.58l2.42,4.62a1.29,1.29,0,0,0,1.67.64l3.24-1.17a1.53,1.53,0,0,0,1-1.65l-1.08-5.12a13.15,13.15,0,0,0,2.91-1.94l4.17,3.39a1.26,1.26,0,0,0,1.88.08l2.34-2.14.21-.19a1.33,1.33,0,0,0,.46-1,1.29,1.29,0,0,0-.38-.92l-3-4.47A9.25,9.25,0,0,0,330.64,93l5.19,1.74a1.28,1.28,0,0,0,1.53-.68L339,90.79a1.9,1.9,0,0,0-.49-1.72L334,86a9.44,9.44,0,0,0,.71-3.17l5.49-.69c.57-.16,1.16-.7,1.18-1.08l.17-3.75A1.28,1.28,0,0,0,340.26,76ZM306,86a9,9,0,1,1,9-9A9,9,0,0,1,306,86Z"/><path class="cls-11" d="M340.26,76,335,75a20.86,20.86,0,0,0-.4-3.59l4.44-2.62a1.37,1.37,0,0,0,.84-1.84l-1.17-3.25a1.18,1.18,0,0,0-1.66-.64l-5.3.89-1.56-2.89,3.19-4a1.41,1.41,0,0,0,.08-1.87L331,52.44a1.69,1.69,0,0,0-1.88-.08l-4.27,2.81c-.91-.6-2-1.4-2.91-2l1.37-5.2a1.29,1.29,0,0,0-.68-1.54L319.51,45a1.19,1.19,0,0,0-1.72.48l-3,4.57a10.81,10.81,0,0,0-3.34-.91l-.51-5.28a1.29,1.29,0,0,0-1.25-1.38l-3.57,0c-.56-.21-1.15.33-1.36.88l-1.19,5.4a11.12,11.12,0,0,0-3.41.59l-2.6-4.81a1.9,1.9,0,0,0-1.66-.64l-3.45,1.35a1.27,1.27,0,0,0-.82,1.46l1.08,5.13c-1,.52-1.94,1.41-2.91,1.94l-4.17-3.39a1.22,1.22,0,0,0-1.69.11L282.27,52l-.91.84,0,0,18.05,18.05a9,9,0,1,1,12.7,12.7l19,19,.21-.19a1.33,1.33,0,0,0,.46-1,1.29,1.29,0,0,0-.38-.92l-3-4.47A9.25,9.25,0,0,0,330.64,93l5.19,1.74a1.28,1.28,0,0,0,1.53-.68L339,90.79a1.9,1.9,0,0,0-.49-1.72L334,86a9.44,9.44,0,0,0,.71-3.17l5.49-.69c.57-.16,1.16-.7,1.18-1.08l.17-3.75A1.28,1.28,0,0,0,340.26,76Z"/><path class="cls-12" d="M341.36,52.16a1.25,1.25,0,0,0,1.16.81l2.54-.14a1.25,1.25,0,0,0,1-1.35l.08-3.12a1.81,1.81,0,0,1,1.15-1.93c.4-.39,1-.57,1.39-.93a2.19,2.19,0,0,1,2.15.24l2.89,1.83a1.47,1.47,0,0,0,1.34-.18l1.84-2.1a1.3,1.3,0,0,0-.35-1.58l-2.24-2.38a1.59,1.59,0,0,1-.35-2s.84-3.11,2.18-3.28l2.94-.52a1.55,1.55,0,0,0,1-1.34l-.33-2.75a1,1,0,0,0-1.09-.82h-.07l-3.13-.07a1.86,1.86,0,0,1-1.93-1.22c-.39-.4-.57-1-.93-1.38a3.13,3.13,0,0,1,.12-2.35l1.82-2.5a1.41,1.41,0,0,0-.16-1.76L352.27,20a1.25,1.25,0,0,0-1.57,0l-2.19,2.48c-.55.6-1.59,1.51-3.73.12,0,0-1.59-1-1.74-1.83l-.46-3.31a1.25,1.25,0,0,0-1.16-.81l-2.75.33a1,1,0,0,0-.76,1.13v0l-.27,3.31c0,1.17-.41,1.56-1,1.74-.4.39-1,.57-1.39.93a2,2,0,0,1-2.35-.06l-2.69-2a1.52,1.52,0,0,0-1.58.35l-1.84,2.1a1.73,1.73,0,0,0,.35,1.58l2.29,2.4c.76.79,1.13,1.54.1,3.72-.16.59-.43,1.18-1.79,1.33l-3.15.71a1.25,1.25,0,0,0-.81,1.16l.33,2.75a1.25,1.25,0,0,0,1,1l3.32-.11c1.17,0,1.56.41,1.74,1a17.5,17.5,0,0,1,.93,1.78,1.75,1.75,0,0,1,.13,2.1l-2,2.69a1.51,1.51,0,0,0,.35,1.57l1.92,1.61a1.25,1.25,0,0,0,1.57,0l2.21-2.48a2,2,0,0,1,2.15-.51s3.14.27,3.27,2.22l.7,3.14m7.29-18a6.88,6.88,0,0,1-6,7.28A6.39,6.39,0,0,1,335.37,36q0-.31-.06-.62a6.56,6.56,0,0,1,5.83-7.09,6.65,6.65,0,0,1,7.5,5.68l0,.16"/></svg>